<svg xmlns="http://www.w3.org/2000/svg" viewBox="0 0 120 120" role="img" aria-label="team icon">
  <circle cx="60" cy="35" r="19" fill="#2368c4"/>
  <circle cx="30" cy="47" r="15" fill="#2368c4" opacity=".9"/>
  <circle cx="90" cy="47" r="15" fill="#2368c4" opacity=".9"/>
  <path fill="#2368c4" d="M35 106V83c0-15 10-25 25-25s25 10 25 25v23z"/>
  <path fill="#2368c4" opacity=".9" d="M8 104V83c0-13 8-22 22-22 6 0 11 2 15 5-8 6-12 16-12 28v10z"/>
  <path fill="#2368c4" opacity=".9" d="M87 104V94c0-12-4-22-12-28 4-3 9-5 15-5 14 0 22 9 22 22v21z"/>
</svg>