<svg xmlns="http://www.w3.org/2000/svg" width="520" height="720" viewBox="0 0 520 720"><rect width="520" height="720" fill="#fff"/><rect x="35" y="25" width="450" height="670" fill="#fff" stroke="#111" stroke-width="3"/><text x="210" y="70" font-family="Arial" font-size="26" font-weight="700">御見積書</text><text x="60" y="118" font-family="Arial" font-size="16">サンプル株式会社　御中</text><text x="60" y="156" font-family="Arial" font-size="16">テスト引越センター</text><text x="60" y="195" font-family="Arial" font-size="18">合計金額</text><rect x="150" y="168" width="260" height="42" fill="#f8fafc" stroke="#ccc"/><text x="190" y="197" font-family="Arial" font-size="24" font-weight="700">¥76,000（税込）</text><g font-family="Arial" font-size="14"><rect x="60" y="242" width="400" height="270" fill="#fff" stroke="#111"/><line x1="60" y1="278" x2="460" y2="278" stroke="#111"/><line x1="60" y1="314" x2="460" y2="314" stroke="#ddd"/><line x1="60" y1="350" x2="460" y2="350" stroke="#ddd"/><line x1="60" y1="386" x2="460" y2="386" stroke="#ddd"/><line x1="60" y1="422" x2="460" y2="422" stroke="#ddd"/><line x1="60" y1="458" x2="460" y2="458" stroke="#ddd"/><text x="75" y="266">品名</text><text x="235" y="266">数量</text><text x="310" y="266">単価</text><text x="390" y="266">金額</text><text x="75" y="302">基本料金</text><text x="245" y="302">1式</text><text x="308" y="302">¥40,000</text><text x="390" y="302">¥40,000</text><text x="75" y="338">資材費</text><text x="245" y="338">1式</text><text x="308" y="338">¥15,000</text><text x="390" y="338">¥15,000</text><text x="75" y="374">オプション</text><text x="245" y="374">1式</text><text x="308" y="374">¥20,000</text><text x="390" y="374">¥20,000</text><text x="75" y="494">合計</text><text x="390" y="494">¥76,000</text></g><rect x="60" y="550" width="400" height="92" fill="#fff" stroke="#111"/><text x="75" y="580" font-family="Arial" font-size="14">備考</text><text x="75" y="612" font-family="Arial" font-size="13">※本画面はサンプルデータです。</text><text x="75" y="636" font-family="Arial" font-size="13">※実在の情報ではありません。</text></svg>