<svg xmlns="http://www.w3.org/2000/svg" width="900" height="560" viewBox="0 0 900 560">
<rect width="900" height="560" fill="#fff"/>
<rect x="0" y="0" width="160" height="560" fill="#062646"/>
<rect x="0" y="0" width="160" height="56" fill="#061923"/>
<text x="22" y="36" font-family="Arial, sans-serif" font-size="20" font-weight="700" fill="#fff">メニュー</text>
<rect x="18" y="80" width="124" height="30" rx="6" fill="#173a5f"/><text x="36" y="101" font-family="Arial, sans-serif" font-size="14" fill="#fff">ダッシュボード</text><rect x="18" y="132" width="124" height="30" rx="6" fill="#1266d6"/><text x="36" y="153" font-family="Arial, sans-serif" font-size="14" fill="#fff">スケジュール</text><rect x="18" y="184" width="124" height="30" rx="6" fill="#173a5f"/><text x="36" y="205" font-family="Arial, sans-serif" font-size="14" fill="#fff">案件一覧</text><rect x="18" y="236" width="124" height="30" rx="6" fill="#173a5f"/><text x="36" y="257" font-family="Arial, sans-serif" font-size="14" fill="#fff">顧客管理</text><rect x="18" y="288" width="124" height="30" rx="6" fill="#173a5f"/><text x="36" y="309" font-family="Arial, sans-serif" font-size="14" fill="#fff">帳票</text><rect x="18" y="340" width="124" height="30" rx="6" fill="#173a5f"/><text x="36" y="361" font-family="Arial, sans-serif" font-size="14" fill="#fff">設定</text>
<rect x="160" y="0" width="740" height="560" fill="#f8fbff"/>
<text x="190" y="44" font-family="Arial, sans-serif" font-size="26" font-weight="700" fill="#172b4d">スケジュール管理</text>
<rect x="190" y="78" width="672" height="420" rx="8" fill="#fff" stroke="#dbe6f2"/><rect x="190" y="78" width="96" height="44" fill="#ffe8e8" stroke="#dbe6f2"/><text x="234" y="106" font-family="Arial" font-size="16" font-weight="700" fill="#253858">日</text><rect x="286" y="78" width="96" height="44" fill="#f3f7fb" stroke="#dbe6f2"/><text x="330" y="106" font-family="Arial" font-size="16" font-weight="700" fill="#253858">月</text><rect x="382" y="78" width="96" height="44" fill="#f3f7fb" stroke="#dbe6f2"/><text x="426" y="106" font-family="Arial" font-size="16" font-weight="700" fill="#253858">火</text><rect x="478" y="78" width="96" height="44" fill="#f3f7fb" stroke="#dbe6f2"/><text x="522" y="106" font-family="Arial" font-size="16" font-weight="700" fill="#253858">水</text><rect x="574" y="78" width="96" height="44" fill="#f3f7fb" stroke="#dbe6f2"/><text x="618" y="106" font-family="Arial" font-size="16" font-weight="700" fill="#253858">木</text><rect x="670" y="78" width="96" height="44" fill="#f3f7fb" stroke="#dbe6f2"/><text x="714" y="106" font-family="Arial" font-size="16" font-weight="700" fill="#253858">金</text><rect x="766" y="78" width="96" height="44" fill="#e6f2ff" stroke="#dbe6f2"/><text x="810" y="106" font-family="Arial" font-size="16" font-weight="700" fill="#253858">土</text><rect x="190" y="122" width="96" height="75" fill="#fff" stroke="#dbe6f2"/><text x="198" y="140" font-family="Arial" font-size="12" fill="#334">1</text><rect x="286" y="122" width="96" height="75" fill="#fff" stroke="#dbe6f2"/><text x="294" y="140" font-family="Arial" font-size="12" fill="#334">2</text><rect x="382" y="122" width="96" height="75" fill="#fff" stroke="#dbe6f2"/><text x="390" y="140" font-family="Arial" font-size="12" fill="#334">3</text><rect x="478" y="122" width="96" height="75" fill="#fff" stroke="#dbe6f2"/><text x="486" y="140" font-family="Arial" font-size="12" fill="#334">4</text><rect x="574" y="122" width="96" height="75" fill="#fff" stroke="#dbe6f2"/><text x="582" y="140" font-family="Arial" font-size="12" fill="#334">5</text><rect x="670" y="122" width="96" height="75" fill="#fff" stroke="#dbe6f2"/><text x="678" y="140" font-family="Arial" font-size="12" fill="#334">6</text><rect x="766" y="122" width="96" height="75" fill="#fff" stroke="#dbe6f2"/><text x="774" y="140" font-family="Arial" font-size="12" fill="#334">7</text><rect x="190" y="197" width="96" height="75" fill="#fff" stroke="#dbe6f2"/><text x="198" y="215" font-family="Arial" font-size="12" fill="#334">8</text><rect x="286" y="197" width="96" height="75" fill="#fff" stroke="#dbe6f2"/><text x="294" y="215" font-family="Arial" font-size="12" fill="#334">9</text><rect x="382" y="197" width="96" height="75" fill="#fff" stroke="#dbe6f2"/><text x="390" y="215" font-family="Arial" font-size="12" fill="#334">10</text><rect x="478" y="197" width="96" height="75" fill="#fff" stroke="#dbe6f2"/><text x="486" y="215" font-family="Arial" font-size="12" fill="#334">11</text><rect x="574" y="197" width="96" height="75" fill="#fff" stroke="#dbe6f2"/><text x="582" y="215" font-family="Arial" font-size="12" fill="#334">12</text><rect x="670" y="197" width="96" height="75" fill="#fff" stroke="#dbe6f2"/><text x="678" y="215" font-family="Arial" font-size="12" fill="#334">13</text><rect x="766" y="197" width="96" height="75" fill="#fff" stroke="#dbe6f2"/><text x="774" y="215" font-family="Arial" font-size="12" fill="#334">14</text><rect x="190" y="272" width="96" height="75" fill="#fff" stroke="#dbe6f2"/><text x="198" y="290" font-family="Arial" font-size="12" fill="#334">15</text><rect x="286" y="272" width="96" height="75" fill="#fff" stroke="#dbe6f2"/><text x="294" y="290" font-family="Arial" font-size="12" fill="#334">16</text><rect x="382" y="272" width="96" height="75" fill="#fff" stroke="#dbe6f2"/><text x="390" y="290" font-family="Arial" font-size="12" fill="#334">17</text><rect x="478" y="272" width="96" height="75" fill="#fff" stroke="#dbe6f2"/><text x="486" y="290" font-family="Arial" font-size="12" fill="#334">18</text><rect x="574" y="272" width="96" height="75" fill="#fff" stroke="#dbe6f2"/><text x="582" y="290" font-family="Arial" font-size="12" fill="#334">19</text><rect x="670" y="272" width="96" height="75" fill="#fff" stroke="#dbe6f2"/><text x="678" y="290" font-family="Arial" font-size="12" fill="#334">20</text><rect x="766" y="272" width="96" height="75" fill="#fff" stroke="#dbe6f2"/><text x="774" y="290" font-family="Arial" font-size="12" fill="#334">21</text><rect x="190" y="347" width="96" height="75" fill="#fff" stroke="#dbe6f2"/><text x="198" y="365" font-family="Arial" font-size="12" fill="#334">22</text><rect x="286" y="347" width="96" height="75" fill="#fff" stroke="#dbe6f2"/><text x="294" y="365" font-family="Arial" font-size="12" fill="#334">23</text><rect x="382" y="347" width="96" height="75" fill="#fff" stroke="#dbe6f2"/><text x="390" y="365" font-family="Arial" font-size="12" fill="#334">24</text><rect x="478" y="347" width="96" height="75" fill="#fff" stroke="#dbe6f2"/><text x="486" y="365" font-family="Arial" font-size="12" fill="#334">25</text><rect x="574" y="347" width="96" height="75" fill="#fff" stroke="#dbe6f2"/><text x="582" y="365" font-family="Arial" font-size="12" fill="#334">26</text><rect x="670" y="347" width="96" height="75" fill="#fff" stroke="#dbe6f2"/><text x="678" y="365" font-family="Arial" font-size="12" fill="#334">27</text><rect x="766" y="347" width="96" height="75" fill="#fff" stroke="#dbe6f2"/><text x="774" y="365" font-family="Arial" font-size="12" fill="#334">28</text><rect x="190" y="422" width="96" height="75" fill="#fff" stroke="#dbe6f2"/><text x="198" y="440" font-family="Arial" font-size="12" fill="#334">29</text><rect x="286" y="422" width="96" height="75" fill="#fff" stroke="#dbe6f2"/><text x="294" y="440" font-family="Arial" font-size="12" fill="#334">30</text><rect x="382" y="422" width="96" height="75" fill="#fff" stroke="#dbe6f2"/><text x="390" y="440" font-family="Arial" font-size="12" fill="#334">31</text><rect x="478" y="422" width="96" height="75" fill="#fff" stroke="#dbe6f2"/><text x="486" y="440" font-family="Arial" font-size="12" fill="#334">32</text><rect x="574" y="422" width="96" height="75" fill="#fff" stroke="#dbe6f2"/><text x="582" y="440" font-family="Arial" font-size="12" fill="#334">33</text><rect x="670" y="422" width="96" height="75" fill="#fff" stroke="#dbe6f2"/><text x="678" y="440" font-family="Arial" font-size="12" fill="#334">34</text><rect x="766" y="422" width="96" height="75" fill="#fff" stroke="#dbe6f2"/><text x="774" y="440" font-family="Arial" font-size="12" fill="#334">35</text><rect x="291" y="220" width="84" height="20" rx="3" fill="#dff0ff" stroke="#1266d6"/><text x="297" y="234" font-family="Arial" font-size="10" fill="#1d2b45">10:00 A社</text><rect x="387" y="319" width="84" height="20" rx="3" fill="#fff0cf" stroke="#1266d6"/><text x="393" y="333" font-family="Arial" font-size="10" fill="#1d2b45">13:30 B社</text><rect x="483" y="295" width="84" height="20" rx="3" fill="#e9ddff" stroke="#1266d6"/><text x="489" y="309" font-family="Arial" font-size="10" fill="#1d2b45">09:00 C社</text><rect x="291" y="394" width="84" height="20" rx="3" fill="#dff6e7" stroke="#1266d6"/><text x="297" y="408" font-family="Arial" font-size="10" fill="#1d2b45">14:00 D社</text><rect x="579" y="220" width="84" height="20" rx="3" fill="#dff0ff" stroke="#1266d6"/><text x="585" y="234" font-family="Arial" font-size="10" fill="#1d2b45">12:30 E社</text><rect x="675" y="319" width="84" height="20" rx="3" fill="#fff0cf" stroke="#1266d6"/><text x="681" y="333" font-family="Arial" font-size="10" fill="#1d2b45">15:00 F社</text><rect x="771" y="370" width="84" height="20" rx="3" fill="#e9ddff" stroke="#1266d6"/><text x="777" y="384" font-family="Arial" font-size="10" fill="#1d2b45">10:00 G社</text><rect x="387" y="469" width="84" height="20" rx="3" fill="#dff6e7" stroke="#1266d6"/><text x="393" y="483" font-family="Arial" font-size="10" fill="#1d2b45">16:00 H社</text></svg>