<svg xmlns="http://www.w3.org/2000/svg" width="900" height="560" viewBox="0 0 900 560">
<rect width="900" height="560" fill="#fff"/>
<rect x="0" y="0" width="160" height="560" fill="#062646"/>
<rect x="0" y="0" width="160" height="56" fill="#061923"/>
<text x="22" y="36" font-family="Arial, sans-serif" font-size="20" font-weight="700" fill="#fff">メニュー</text>
<rect x="18" y="80" width="124" height="30" rx="6" fill="#173a5f"/><text x="36" y="101" font-family="Arial, sans-serif" font-size="14" fill="#fff">ダッシュボード</text><rect x="18" y="132" width="124" height="30" rx="6" fill="#e83e72"/><text x="36" y="153" font-family="Arial, sans-serif" font-size="14" fill="#fff">スケジュール</text><rect x="18" y="184" width="124" height="30" rx="6" fill="#173a5f"/><text x="36" y="205" font-family="Arial, sans-serif" font-size="14" fill="#fff">案件一覧</text><rect x="18" y="236" width="124" height="30" rx="6" fill="#173a5f"/><text x="36" y="257" font-family="Arial, sans-serif" font-size="14" fill="#fff">顧客管理</text><rect x="18" y="288" width="124" height="30" rx="6" fill="#173a5f"/><text x="36" y="309" font-family="Arial, sans-serif" font-size="14" fill="#fff">帳票</text><rect x="18" y="340" width="124" height="30" rx="6" fill="#173a5f"/><text x="36" y="361" font-family="Arial, sans-serif" font-size="14" fill="#fff">設定</text>
<rect x="160" y="0" width="740" height="560" fill="#f8fbff"/>
<text x="190" y="44" font-family="Arial, sans-serif" font-size="26" font-weight="700" fill="#172b4d">訪問看護記録書</text>
<rect x="190" y="76" width="660" height="420" rx="8" fill="#fff" stroke="#dbe6f2"/><text x="220" y="110" font-family="Arial" font-size="15" font-weight="700" fill="#333">利用者名</text><rect x="310" y="88" width="180" height="30" rx="4" fill="#f8fafc" stroke="#dbe6f2"/><text x="320" y="110" font-family="Arial" font-size="13" fill="#111">山田 太郎 様</text><text x="520" y="110" font-family="Arial" font-size="15" font-weight="700" fill="#333">訪問日時</text><rect x="610" y="88" width="180" height="30" rx="4" fill="#f8fafc" stroke="#dbe6f2"/><text x="620" y="110" font-family="Arial" font-size="13" fill="#111">2026/07/01（水）10:00〜10:45</text><text x="220" y="155" font-family="Arial" font-size="15" font-weight="700" fill="#333">担当者</text><rect x="310" y="133" width="180" height="30" rx="4" fill="#f8fafc" stroke="#dbe6f2"/><text x="320" y="155" font-family="Arial" font-size="13" fill="#111">佐藤 花子</text><text x="520" y="155" font-family="Arial" font-size="15" font-weight="700" fill="#333">サービス区分</text><rect x="610" y="133" width="180" height="30" rx="4" fill="#f8fafc" stroke="#dbe6f2"/><text x="620" y="155" font-family="Arial" font-size="13" fill="#111">医療保険　介護保険</text><text x="220" y="200" font-family="Arial" font-size="15" font-weight="700" fill="#333">体温</text><rect x="310" y="178" width="180" height="30" rx="4" fill="#f8fafc" stroke="#dbe6f2"/><text x="320" y="200" font-family="Arial" font-size="13" fill="#111">36.5 ℃</text><text x="520" y="200" font-family="Arial" font-size="15" font-weight="700" fill="#333">血圧</text><rect x="610" y="178" width="180" height="30" rx="4" fill="#f8fafc" stroke="#dbe6f2"/><text x="620" y="200" font-family="Arial" font-size="13" fill="#111">118 / 72 mmHg</text><text x="220" y="245" font-family="Arial" font-size="15" font-weight="700" fill="#333">脈拍</text><rect x="310" y="223" width="180" height="30" rx="4" fill="#f8fafc" stroke="#dbe6f2"/><text x="320" y="245" font-family="Arial" font-size="13" fill="#111">76 回/分</text><text x="520" y="245" font-family="Arial" font-size="15" font-weight="700" fill="#333">SpO2</text><rect x="610" y="223" width="180" height="30" rx="4" fill="#f8fafc" stroke="#dbe6f2"/><text x="620" y="245" font-family="Arial" font-size="13" fill="#111">98 %</text><rect x="220" y="292" width="18" height="18" fill="#111" stroke="#999"/><text x="248" y="307" font-family="Arial" font-size="14" fill="#111">病状の観察</text><rect x="480" y="292" width="18" height="18" fill="#111" stroke="#999"/><text x="508" y="307" font-family="Arial" font-size="14" fill="#111">清潔ケア</text><rect x="220" y="326" width="18" height="18" fill="#fff" stroke="#999"/><text x="248" y="341" font-family="Arial" font-size="14" fill="#111">排泄ケア</text><rect x="480" y="326" width="18" height="18" fill="#111" stroke="#999"/><text x="508" y="341" font-family="Arial" font-size="14" fill="#111">服薬管理</text><rect x="220" y="360" width="18" height="18" fill="#fff" stroke="#999"/><text x="248" y="375" font-family="Arial" font-size="14" fill="#111">リハビリ</text><rect x="480" y="360" width="18" height="18" fill="#fff" stroke="#999"/><text x="508" y="375" font-family="Arial" font-size="14" fill="#111">栄養指導</text><rect x="220" y="394" width="18" height="18" fill="#fff" stroke="#999"/><text x="248" y="409" font-family="Arial" font-size="14" fill="#111">医療処置</text><rect x="480" y="394" width="18" height="18" fill="#fff" stroke="#999"/><text x="508" y="409" font-family="Arial" font-size="14" fill="#111">その他</text><rect x="220" y="445" width="590" height="38" rx="5" fill="#f8fafc" stroke="#dbe6f2"/><text x="232" y="469" font-family="Arial" font-size="14" fill="#111">食事良好。状態は安定しています。</text></svg>