<svg xmlns="http://www.w3.org/2000/svg" width="900" height="560" viewBox="0 0 900 560">
<rect width="900" height="560" fill="#fff"/>
<rect x="0" y="0" width="160" height="560" fill="#062646"/>
<rect x="0" y="0" width="160" height="56" fill="#061923"/>
<text x="22" y="36" font-family="Arial, sans-serif" font-size="20" font-weight="700" fill="#fff">メニュー</text>
<rect x="18" y="80" width="124" height="30" rx="6" fill="#173a5f"/><text x="36" y="101" font-family="Arial, sans-serif" font-size="14" fill="#fff">ダッシュボード</text><rect x="18" y="132" width="124" height="30" rx="6" fill="#0d7f70"/><text x="36" y="153" font-family="Arial, sans-serif" font-size="14" fill="#fff">スケジュール</text><rect x="18" y="184" width="124" height="30" rx="6" fill="#173a5f"/><text x="36" y="205" font-family="Arial, sans-serif" font-size="14" fill="#fff">案件一覧</text><rect x="18" y="236" width="124" height="30" rx="6" fill="#173a5f"/><text x="36" y="257" font-family="Arial, sans-serif" font-size="14" fill="#fff">顧客管理</text><rect x="18" y="288" width="124" height="30" rx="6" fill="#173a5f"/><text x="36" y="309" font-family="Arial, sans-serif" font-size="14" fill="#fff">帳票</text><rect x="18" y="340" width="124" height="30" rx="6" fill="#173a5f"/><text x="36" y="361" font-family="Arial, sans-serif" font-size="14" fill="#fff">設定</text>
<rect x="160" y="0" width="740" height="560" fill="#f8fbff"/>
<text x="190" y="44" font-family="Arial, sans-serif" font-size="26" font-weight="700" fill="#172b4d">商品別 売上利益一覧</text>
<rect x="190" y="86" width="660" height="400" rx="8" fill="#fff" stroke="#dbe6f2"/><text x="210" y="122" font-family="Arial" font-size="15" font-weight="700" fill="#52616f">商品名</text><text x="335" y="122" font-family="Arial" font-size="15" font-weight="700" fill="#52616f">カテゴリ</text><text x="460" y="122" font-family="Arial" font-size="15" font-weight="700" fill="#52616f">数量</text><text x="585" y="122" font-family="Arial" font-size="15" font-weight="700" fill="#52616f">金額</text><text x="710" y="122" font-family="Arial" font-size="15" font-weight="700" fill="#52616f">ステータス</text><line x1="200" x2="830" y1="162" y2="162" stroke="#e6edf5"/><text x="210" y="150" font-family="Arial" font-size="14" fill="#111">商品A</text><text x="335" y="150" font-family="Arial" font-size="14" fill="#111">雑貨</text><text x="460" y="150" font-family="Arial" font-size="14" fill="#111">10</text><text x="585" y="150" font-family="Arial" font-size="14" fill="#111">¥36,000</text><text x="710" y="150" font-family="Arial" font-size="14" fill="#111">登録済</text><line x1="200" x2="830" y1="198" y2="198" stroke="#e6edf5"/><text x="210" y="186" font-family="Arial" font-size="14" fill="#111">商品B</text><text x="335" y="186" font-family="Arial" font-size="14" fill="#111">雑貨</text><text x="460" y="186" font-family="Arial" font-size="14" fill="#111">13</text><text x="585" y="186" font-family="Arial" font-size="14" fill="#111">¥48,000</text><text x="710" y="186" font-family="Arial" font-size="14" fill="#111">登録済</text><line x1="200" x2="830" y1="234" y2="234" stroke="#e6edf5"/><text x="210" y="222" font-family="Arial" font-size="14" fill="#111">商品C</text><text x="335" y="222" font-family="Arial" font-size="14" fill="#111">雑貨</text><text x="460" y="222" font-family="Arial" font-size="14" fill="#111">16</text><text x="585" y="222" font-family="Arial" font-size="14" fill="#111">¥60,000</text><text x="710" y="222" font-family="Arial" font-size="14" fill="#111">登録済</text><line x1="200" x2="830" y1="270" y2="270" stroke="#e6edf5"/><text x="210" y="258" font-family="Arial" font-size="14" fill="#111">商品D</text><text x="335" y="258" font-family="Arial" font-size="14" fill="#111">雑貨</text><text x="460" y="258" font-family="Arial" font-size="14" fill="#111">19</text><text x="585" y="258" font-family="Arial" font-size="14" fill="#111">¥72,000</text><text x="710" y="258" font-family="Arial" font-size="14" fill="#111">登録済</text><line x1="200" x2="830" y1="306" y2="306" stroke="#e6edf5"/><text x="210" y="294" font-family="Arial" font-size="14" fill="#111">商品E</text><text x="335" y="294" font-family="Arial" font-size="14" fill="#111">雑貨</text><text x="460" y="294" font-family="Arial" font-size="14" fill="#111">22</text><text x="585" y="294" font-family="Arial" font-size="14" fill="#111">¥84,000</text><text x="710" y="294" font-family="Arial" font-size="14" fill="#111">登録済</text><line x1="200" x2="830" y1="342" y2="342" stroke="#e6edf5"/><text x="210" y="330" font-family="Arial" font-size="14" fill="#111">商品F</text><text x="335" y="330" font-family="Arial" font-size="14" fill="#111">雑貨</text><text x="460" y="330" font-family="Arial" font-size="14" fill="#111">25</text><text x="585" y="330" font-family="Arial" font-size="14" fill="#111">¥96,000</text><text x="710" y="330" font-family="Arial" font-size="14" fill="#111">登録済</text><line x1="200" x2="830" y1="378" y2="378" stroke="#e6edf5"/><text x="210" y="366" font-family="Arial" font-size="14" fill="#111">商品G</text><text x="335" y="366" font-family="Arial" font-size="14" fill="#111">雑貨</text><text x="460" y="366" font-family="Arial" font-size="14" fill="#111">28</text><text x="585" y="366" font-family="Arial" font-size="14" fill="#111">¥108,000</text><text x="710" y="366" font-family="Arial" font-size="14" fill="#111">登録済</text><line x1="200" x2="830" y1="414" y2="414" stroke="#e6edf5"/><text x="210" y="402" font-family="Arial" font-size="14" fill="#111">商品H</text><text x="335" y="402" font-family="Arial" font-size="14" fill="#111">雑貨</text><text x="460" y="402" font-family="Arial" font-size="14" fill="#111">31</text><text x="585" y="402" font-family="Arial" font-size="14" fill="#111">¥120,000</text><text x="710" y="402" font-family="Arial" font-size="14" fill="#111">登録済</text></svg>