<svg xmlns="http://www.w3.org/2000/svg" width="900" height="560" viewBox="0 0 900 560">
<rect width="900" height="560" fill="#fff"/>
<rect x="0" y="0" width="160" height="560" fill="#062646"/>
<rect x="0" y="0" width="160" height="56" fill="#061923"/>
<text x="22" y="36" font-family="Arial, sans-serif" font-size="20" font-weight="700" fill="#fff">メニュー</text>
<rect x="18" y="80" width="124" height="30" rx="6" fill="#173a5f"/><text x="36" y="101" font-family="Arial, sans-serif" font-size="14" fill="#fff">ダッシュボード</text><rect x="18" y="132" width="124" height="30" rx="6" fill="#0d7f70"/><text x="36" y="153" font-family="Arial, sans-serif" font-size="14" fill="#fff">スケジュール</text><rect x="18" y="184" width="124" height="30" rx="6" fill="#173a5f"/><text x="36" y="205" font-family="Arial, sans-serif" font-size="14" fill="#fff">案件一覧</text><rect x="18" y="236" width="124" height="30" rx="6" fill="#173a5f"/><text x="36" y="257" font-family="Arial, sans-serif" font-size="14" fill="#fff">顧客管理</text><rect x="18" y="288" width="124" height="30" rx="6" fill="#173a5f"/><text x="36" y="309" font-family="Arial, sans-serif" font-size="14" fill="#fff">帳票</text><rect x="18" y="340" width="124" height="30" rx="6" fill="#173a5f"/><text x="36" y="361" font-family="Arial, sans-serif" font-size="14" fill="#fff">設定</text>
<rect x="160" y="0" width="740" height="560" fill="#f8fbff"/>
<text x="190" y="44" font-family="Arial, sans-serif" font-size="26" font-weight="700" fill="#172b4d">売上利益ダッシュボード</text>
<rect x="190" y="78" width="198" height="88" rx="8" fill="#fff" stroke="#dbe6f2"/><text x="208" y="110" font-family="Arial" font-size="14" fill="#52616f">売上高</text><text x="208" y="148" font-family="Arial" font-size="28" font-weight="700" fill="#111">¥ 98,650,000</text><rect x="410" y="78" width="198" height="88" rx="8" fill="#fff" stroke="#dbe6f2"/><text x="428" y="110" font-family="Arial" font-size="14" fill="#52616f">粗利益</text><text x="428" y="148" font-family="Arial" font-size="28" font-weight="700" fill="#111">¥ 22,480,000</text><rect x="630" y="78" width="198" height="88" rx="8" fill="#fff" stroke="#dbe6f2"/><text x="648" y="110" font-family="Arial" font-size="14" fill="#52616f">経費</text><text x="648" y="148" font-family="Arial" font-size="28" font-weight="700" fill="#111">¥ 8,750,000</text><rect x="190" y="190" width="330" height="210" rx="8" fill="#fff" stroke="#dbe6f2"/><rect x="225" y="300" width="24" height="70" fill="#2f80ed" rx="3"/><rect x="269" y="250" width="24" height="120" fill="#2f80ed" rx="3"/><rect x="313" y="278" width="24" height="92" fill="#2f80ed" rx="3"/><rect x="357" y="230" width="24" height="140" fill="#2f80ed" rx="3"/><rect x="401" y="255" width="24" height="115" fill="#2f80ed" rx="3"/><rect x="445" y="215" width="24" height="155" fill="#2f80ed" rx="3"/><polyline points="225,330 269,300 313,315 357,290 401,305 445,275" fill="none" stroke="#f04f4f" stroke-width="5"/><rect x="546" y="190" width="300" height="210" rx="8" fill="#fff" stroke="#dbe6f2"/><circle cx="696" cy="295" r="78" fill="none" stroke="#2f80ed" stroke-width="38" stroke-dasharray="155 340"/><circle cx="696" cy="295" r="78" fill="none" stroke="#f2b13b" stroke-width="38" stroke-dasharray="105 340" stroke-dashoffset="-155"/><circle cx="696" cy="295" r="78" fill="none" stroke="#54b96b" stroke-width="38" stroke-dasharray="95 340" stroke-dashoffset="-260"/><rect x="190" y="422" width="656" height="96" rx="8" fill="#fff" stroke="#dbe6f2"/><text x="220" y="448" font-family="Arial" font-size="13" fill="#111">商品A</text><text x="340" y="448" font-family="Arial" font-size="13" fill="#111">¥14,760,000</text><text x="510" y="448" font-family="Arial" font-size="13" fill="#111">26.1%</text><text x="220" y="466" font-family="Arial" font-size="13" fill="#111">商品B</text><text x="340" y="466" font-family="Arial" font-size="13" fill="#111">¥13,530,000</text><text x="510" y="466" font-family="Arial" font-size="13" fill="#111">24.1%</text><text x="220" y="484" font-family="Arial" font-size="13" fill="#111">商品C</text><text x="340" y="484" font-family="Arial" font-size="13" fill="#111">¥12,300,000</text><text x="510" y="484" font-family="Arial" font-size="13" fill="#111">22.1%</text><text x="220" y="502" font-family="Arial" font-size="13" fill="#111">商品D</text><text x="340" y="502" font-family="Arial" font-size="13" fill="#111">¥11,070,000</text><text x="510" y="502" font-family="Arial" font-size="13" fill="#111">20.1%</text></svg>